<svg width="15" height="15" viewBox="0 0 15 15" fill="none" xmlns="http://www.w3.org/2000/svg">
<path d="M13.9461 6.83189C15.0168 6.022 14.444 4.31533 13.1015 4.31533H10.6723C10.0584 4.31533 9.51614 3.91536 9.33481 3.32884L8.61066 0.98653C8.20402 -0.328787 6.34223 -0.328787 5.93559 0.98653L5.21144 3.32884C5.03011 3.91536 4.48782 4.31533 3.8739 4.31533H1.40273C0.0645435 4.31533 -0.510957 6.01289 0.551343 6.82669L2.66782 8.44808C3.13197 8.80365 3.32627 9.41024 3.15509 9.96932L2.38609 12.4809C1.98728 13.7834 3.49479 14.8305 4.57613 14.0021L6.42173 12.5882C6.92409 12.2034 7.62216 12.2034 8.12452 12.5882L9.95382 13.9896C11.0367 14.8192 12.5457 13.768 12.1427 12.4648L11.3631 9.94286C11.189 9.37991 11.3861 8.76824 11.8561 8.41278L13.9461 6.83189Z" fill="#FFAD33"/>
</svg>
